<?xml version="1.0" encoding="utf-8"?>
<!-- Generator: Adobe Illustrator 16.0.0, SVG Export Plug-In . SVG Version: 6.00 Build 0)  -->
<!DOCTYPE svg PUBLIC "-//W3C//DTD SVG 1.1//EN" "http://www.w3.org/Graphics/SVG/1.1/DTD/svg11.dtd">
<svg version="1.1" id="Layer_1" xmlns="http://www.w3.org/2000/svg" xmlns:xlink="http://www.w3.org/1999/xlink" x="0px" y="0px"
	 width="166px" height="86px" viewBox="0 0 166 86" enable-background="new 0 0 166 86" xml:space="preserve">
<g>
	<g>
		<path fill="none" d="M-24.64,105.97c0-44.76,0-89.521,0-134.28c72,0,144,0,216,0c0,44.76,0,89.52,0,134.28
			C119.36,105.97,47.36,105.97-24.64,105.97z M163.929,17.134c-0.501-0.454-0.869-0.84-1.288-1.161
			c-8.684-6.63-18.493-8.761-28.988-6.223c-20.611,4.982-28.562,27.546-19.436,44.753c10.236,19.299,34.94,19.712,48.567,8.657
			c0.88-0.714,1.22-1.428,1.213-2.564c-0.05-8.517-0.023-17.033-0.036-25.55c-0.001-0.514,0.184-1.077-0.236-1.572
			c-6.738,0-13.48,0-20.268,0c0,3.875,0,7.63,0,11.552c2.688,0,5.288,0,8.023,0c0,3.092-0.071,6.021,0.033,8.945
			c0.044,1.223-0.38,1.891-1.457,2.32c-6.221,2.481-12.398,2.471-18.357-0.666c-7.495-3.944-9.997-12.855-8.207-20.843
			c2.09-9.327,10.281-14.997,21.809-13.26c3.845,0.579,7.267,2.211,10.406,4.595C158.451,23.119,161.116,20.207,163.929,17.134z
			 M67.055,58.055c-0.752,3.533,1.263,6.151,1.528,9.119c0.021,0.24,0.32,0.483,0.535,0.673c2.148,1.905,4.229,3.876,6.718,5.379
			c1.022,0.618,1.625,1.817,1.629,3.067c0.006,2.122,1.399,4.029,0.884,6.223c-0.092,0.395,0,0.851,0.594,1.13
			c1.125-1.267,2.176,1.146,3.431,0.147c0.189-0.721-0.432-1.412-0.102-2.112c0.888-1.88,0.563-3.88,0.626-5.844
			c0.031-0.953-0.104-1.966,0.171-2.848c1.087-3.491,2.448-6.842,5.824-8.855c0.284-0.169,0.534-0.514,0.648-0.832
			c0.908-2.533,2.286-4.808,3.768-7.03c0.37-0.555,0.663-1.146,0.571-1.848c-0.156-1.189,0.275-2.269,0.787-3.266
			c0.559-1.089,0.854-2.234,1.039-3.403c0.575-3.652,1.357-7.252,2.304-10.829c0.36-1.36,1.415-2.766,0.311-4.285
			c-0.074-0.102,0.09-0.441,0.219-0.614c1.098-1.483,1.622-3.355,3.083-4.585c0.382-0.321,0.432-0.711,0.371-1.129
			c-0.167-1.137,0.329-1.921,0.928-2.891c0.602-0.974,2.103-2.047,1.013-3.602c-2.002-2.854-2.073-7.384,2.044-8.755
			c0.488-0.163,0.852-0.456,0.701-1.158c-1.049,0.078-1.808-0.323-2.001-1.479c-0.104-0.618-0.521-0.956-1.134-0.936
			c-1.953,0.065-3.551-0.914-4.45-2.382c-1.07-1.749-2.389-1.636-3.81-1.135c-1.399,0.493-2.717,1.295-1.765,3.462
			c-1.226-0.377-2.038,0.327-3.048,0.165c-1.788-0.289-5.357,2.194-6.091,3.902c-0.979,2.277-1.74,4.651-3.758,6.4
			c-2.075,1.799-3.666,4.123-4.779,6.599c-1.265,2.814-2.274,5.703-4.418,8.042c-0.792,0.865-1.351,2.002-1.58,3.185
			c-0.265,1.367-1.095,2.264-1.953,3.297c-1.645,1.979-3.12,3.938-2.159,7.072c0.519,1.69,0.931,4.02-0.357,5.968
			c-0.502,0.76-1.196,2.093-0.889,2.551c0.795,1.183,0.044,1.625-0.687,2.434C65.115,56.926,65.481,58.534,67.055,58.055z
			 M54.383,17.99C43.989,7.921,22.596,5.954,10.424,18.515C-1.289,30.603-1.121,50.65,10.843,62.39
			c12.489,12.254,33.654,9.889,43.517,0.066c-2.68-2.942-5.362-5.886-8.029-8.814c-6.308,4.663-13.1,6.034-20.383,3.895
			c-13.246-3.891-14.302-20.201-8.973-27.997c4.333-6.339,12.376-9.016,20.769-6.888c3.16,0.801,5.97,2.287,8.592,4.191
			C49.063,23.842,51.682,20.962,54.383,17.99z"/>
		<path fill-rule="evenodd" clip-rule="evenodd" fill="#03294D" d="M163.929,17.134c-2.812,3.073-5.478,5.985-8.222,8.983
			c-3.14-2.384-6.562-4.016-10.406-4.595c-11.527-1.736-19.719,3.933-21.809,13.26c-1.79,7.988,0.712,16.899,8.207,20.843
			c5.959,3.137,12.137,3.147,18.357,0.666c1.077-0.43,1.501-1.098,1.457-2.32c-0.104-2.923-0.033-5.853-0.033-8.945
			c-2.735,0-5.336,0-8.023,0c0-3.922,0-7.678,0-11.552c6.787,0,13.529,0,20.268,0c0.42,0.496,0.235,1.059,0.236,1.572
			c0.013,8.517-0.014,17.034,0.036,25.55c0.007,1.136-0.333,1.85-1.213,2.564c-13.627,11.055-38.331,10.642-48.567-8.657
			c-9.127-17.208-1.175-39.771,19.436-44.753c10.495-2.538,20.305-0.407,28.988,6.223C163.06,16.293,163.428,16.68,163.929,17.134z"
			/>
		<path fill-rule="evenodd" clip-rule="evenodd" fill="#03294D" d="M67.055,58.055c-1.574,0.479-1.94-1.129-3.255-0.999
			c0.731-0.809,1.481-1.251,0.687-2.434c-0.307-0.458,0.387-1.791,0.889-2.551c1.288-1.948,0.876-4.277,0.357-5.968
			c-0.961-3.134,0.514-5.094,2.159-7.072c0.858-1.033,1.688-1.93,1.953-3.297c0.229-1.183,0.788-2.32,1.58-3.185
			c2.145-2.339,3.153-5.228,4.418-8.042c1.113-2.477,2.704-4.8,4.779-6.599c2.018-1.75,2.78-4.124,3.758-6.4
			c0.734-1.708,4.303-4.191,6.091-3.902c1.01,0.163,1.822-0.542,3.048-0.165c-0.952-2.167,0.365-2.969,1.765-3.462
			c1.42-0.5,2.739-0.614,3.81,1.135c0.898,1.469,2.497,2.447,4.45,2.382c0.613-0.021,1.03,0.317,1.134,0.936
			c0.194,1.157,0.952,1.558,2.001,1.479c0.15,0.702-0.213,0.995-0.701,1.158c-4.117,1.371-4.046,5.9-2.044,8.755
			c1.09,1.554-0.411,2.627-1.013,3.602c-0.599,0.969-1.095,1.754-0.928,2.891c0.062,0.418,0.011,0.809-0.371,1.129
			c-1.461,1.23-1.985,3.102-3.083,4.585c-0.128,0.173-0.292,0.512-0.219,0.614c1.104,1.519,0.049,2.924-0.311,4.285
			c-0.946,3.576-1.729,7.176-2.304,10.829c-0.185,1.169-0.48,2.314-1.039,3.403c-0.511,0.997-0.943,2.077-0.787,3.266
			c0.092,0.702-0.201,1.293-0.571,1.848c-1.482,2.222-2.86,4.497-3.768,7.03c-0.114,0.317-0.364,0.662-0.648,0.832
			c-3.376,2.013-4.737,5.364-5.824,8.855c-0.275,0.882-0.141,1.895-0.171,2.848c-0.063,1.964,0.262,3.964-0.626,5.844
			c-0.331,0.7,0.291,1.391,0.102,2.112c-1.255,0.998-2.306-1.414-3.431-0.147c-0.594-0.279-0.686-0.736-0.594-1.13
			c0.515-2.193-0.878-4.101-0.884-6.223c-0.004-1.25-0.606-2.45-1.629-3.067c-2.489-1.503-4.57-3.475-6.718-5.379
			c-0.215-0.19-0.514-0.434-0.535-0.673C68.318,64.206,66.303,61.587,67.055,58.055z"/>
		<path fill-rule="evenodd" clip-rule="evenodd" fill="#03294D" d="M54.383,17.99c-2.702,2.972-5.32,5.852-8.048,8.854
			c-2.622-1.904-5.432-3.39-8.592-4.191c-8.393-2.128-16.436,0.549-20.769,6.888c-5.329,7.796-4.272,24.106,8.973,27.997
			c7.284,2.139,14.075,0.768,20.383-3.895c2.667,2.928,5.349,5.872,8.029,8.814c-9.863,9.822-31.028,12.188-43.517-0.066
			C-1.121,50.65-1.289,30.603,10.424,18.515C22.596,5.954,43.989,7.921,54.383,17.99z"/>
	</g>
</g>
</svg>
